<svg viewBox="120 80.00000000000023 3039.999999999999 1999.9999999999995" xmlns="http://www.w3.org/2000/svg" overflow="visible" xmlns:xlink="http://www.w3.org/1999/xlink" width="3039.999999999999px" height="1999.9999999999995px"><g id="Master/Background/User Interface 4" stroke="none" stroke-width="1" fill="none" fill-rule="evenodd"><g id="Flying Objects" opacity=".5" transform="translate(2014.000000, 38.000000) scale(1 1)"><g id="Flying Objects/Speech Bubble" stroke="none" stroke-width="1" fill="none" fill-rule="evenodd"><g id="comment" transform="translate(228.000000, 270.000000)"><path d="M-1.87583282e-12,121.62 C-1.87583282e-12,188.756 54.436,243.196 121.616,243.196 C138.552,243.196 154.64,239.716 169.268,233.472 L227.52,260.208 L201.916,212.856 C227.228,190.6 243.196,157.996 243.196,121.62 C243.196,54.44 188.752,2.84217094e-14 121.616,2.84217094e-14 C54.436,2.84217094e-14 -1.87583282e-12,54.44 -1.87583282e-12,121.62" id="Fill-4" fill="#FFB201"/><rect id="Rectangle-Copy-3" fill="#FFF" x="58.318" y="81.499" width="132" height="12" rx="6"/><rect id="Rectangle-Copy-4" fill="#FFF" x="58.318" y="115.499" width="117" height="12" rx="6"/><rect id="Rectangle-Copy-5" fill="#FFF" x="58.318" y="149.499" width="79" height="12" rx="6"/></g></g></g><g id="Phone" transform="translate(1218.000000, 306.000000) scale(1 1)"><g id="Phone/Screen 1" stroke="none" stroke-width="1" fill="none" fill-rule="evenodd"><g id="Group-19"><path d="M855.432,1748.85552 L106.6968,1748.85552 C47.7696,1748.85552 0,1701.08592 0,1642.15872 L0,106.69632 C0,47.76912 47.7696,-0.000479999997 106.6968,-0.000479999997 L855.432,-0.000479999997 C914.3592,-0.000479999997 962.1288,47.76912 962.1288,106.69632 L962.1288,1642.15872 C962.1288,1701.08592 914.3592,1748.85552 855.432,1748.85552 Z" id="Stroke-1" fill="#090E2B"/><path d="M827.33976,71.99976 L714.03336,71.99976 L714.03336,101.26056 C714.03336,141.15336 681.69336,173.49576 641.79816,173.49576 L320.33016,173.49576 C280.43496,173.49576 248.09256,141.15336 248.09256,101.25816 L248.09256,71.99976 L134.79096,71.99976 C100.11096,71.99976 71.99736,100.11096 71.99736,134.79096 L71.99736,1614.06456 C71.99736,1648.74456 100.11096,1676.85576 134.79096,1676.85576 L827.33736,1676.85576 C862.01736,1676.85576 890.12856,1648.74456 890.12856,1614.06456 L890.12856,134.79096 C890.12856,100.11096 862.01736,71.99976 827.33976,71.99976 Z" id="Stroke-3" fill="#FFF"/><path d="M280.88976,1317.76248 L190.76016,1317.76248 C169.25616,1317.76248 151.82496,1300.33128 151.82496,1278.82728 L151.82496,1188.69768 C151.82496,1167.19368 169.25616,1149.76248 190.76016,1149.76248 L280.88976,1149.76248 C302.39376,1149.76248 319.82496,1167.19368 319.82496,1188.69768 L319.82496,1278.82728 C319.82496,1300.33128 302.39376,1317.76248 280.88976,1317.76248 Z" id="Stroke-13" stroke="#C7D2F2" stroke-width="5" stroke-linecap="round" stroke-linejoin="round" stroke-dasharray="10,12"/></g><path d="M281.0648,1318 L190.9352,1318 C169.4312,1318 152,1300.5688 152,1279.0648 L152,1188.9352 C152,1167.4312 169.4312,1150 190.9352,1150 L281.0648,1150 C302.5688,1150 320,1167.4312 320,1188.9352 L320,1279.0648 C320,1300.5688 302.5688,1318 281.0648,1318 Z" id="Stroke-13-Copy-2" fill="#A191FF"/><path d="M781.741436,802.6768 L191.258564,802.6768 C169.575969,802.6768 152,785.2456 152,763.7416 L152,444.9352 C152,423.4312 169.575969,406 191.258564,406 L781.741436,406 C803.424031,406 821,423.4312 821,444.9352 L821,763.7416 C821,785.2456 803.424031,802.6768 781.741436,802.6768 Z" id="Stroke-5-Copy" fill="#FFB201"/><path d="M281.0648,1069 L190.9352,1069 C169.4312,1069 152,1051.5664 152,1030.0648 L152,939.9352 C152,918.4312 169.4312,901 190.9352,901 L281.0648,901 C302.5688,901 320,918.4312 320,939.9352 L320,1030.0648 C320,1051.5664 302.5688,1069 281.0648,1069 Z" id="Stroke-7-Copy" fill="#FF0057"/><rect id="Rectangle" fill="#E7EAFD" x="378" y="901" width="443" height="18" rx="9"/><rect id="Rectangle-Copy-3" fill="#E7EAFD" x="378" y="1162" width="443" height="18" rx="9"/><rect id="Rectangle-Copy" fill="#E7EAFD" x="378" y="965" width="332" height="18" rx="9"/><rect id="Rectangle-Copy-4" fill="#E7EAFD" x="378" y="1226" width="332" height="18" rx="9"/><rect id="Rectangle-Copy-2" fill="#E7EAFD" x="378" y="1029" width="257" height="18" rx="9"/><rect id="Rectangle-Copy-5" fill="#E7EAFD" x="378" y="1290" width="257" height="18" rx="9"/></g></g><path d="M2776.5,2051 C2778.433,2051 2780,2052.567 2780,2054.5 C2780,2056.36856 2778.53572,2057.89513 2776.69204,2057.99482 L2776.5,2058 L130.5,2058 C128.567003,2058 127,2056.433 127,2054.5 C127,2052.63144 128.464278,2051.10487 130.307965,2051.00518 L130.5,2051 L2776.5,2051 Z" id="Floor" fill="#090E2B" fill-rule="nonzero"/><g id="Outdoor Plants" transform="translate(2401.000000, 1090.000000) scale(1 1)"><g id="Outdoor Plants/Trees" stroke="none" stroke-width="1" fill="none" fill-rule="evenodd"><g id="Group" transform="translate(50.000000, 27.000000)"><path d="M246.327941,707.554023 C202.725234,648.694159 266.995654,634.469818 237.177083,579.041474 C201.045875,511.877502 252.889207,525.364984 230.558991,457.77841 C212.889507,404.298257 182.034281,401.995081 179.286724,325.770544 C176.543382,249.546006 39.2582753,245.25238 68.925141,351.777408 C98.5962208,458.302435 22.2672523,432.071593 35.6974086,509.466735 C53.6492336,612.915227 -18.38566,571.479753 4.55980649,651.097777 C24.0792556,718.828035 -59.1552187,832.362634 138.705486,859 C314.797719,849.998599 289.934862,766.418112 246.327941,707.554023 Z" id="Fill-1" fill="#009BA0"/><path d="M95,585 C95,585 102.269883,617.395249 137,651" id="Stroke-5" stroke="#090E2B" stroke-width="9.107" stroke-linecap="round" stroke-linejoin="round"/><path d="M63,713 C63,713 75.8067111,744.89889 137,778" id="Stroke-7" stroke="#090E2B" stroke-width="9.107" stroke-linecap="round" stroke-linejoin="round"/><path d="M199,637 C199,637 190.990083,687.972701 137,725" id="Stroke-9" stroke="#090E2B" stroke-width="9.107" stroke-linecap="round" stroke-linejoin="round"/><path d="M608.603445,473.480495 C570.590587,379.998182 626.937388,314.013535 549.627883,136.939688 C472.318378,-40.1341592 367.026875,-40.7590157 351.056381,107.78507 C335.090104,256.329155 210.936686,350.641456 268.195115,484.721371 C324.468099,616.493705 207.88992,647.351714 245.711222,745.061987 C293.787219,869.262883 452.912681,874 452.912681,874 C626.199908,874 654.358401,816.786582 667.882995,767.076651 C703.354583,636.700085 625.009296,513.826235 608.603445,473.480495 Z" id="Fill-11" fill="#FFB201"/><path d="M535,314 C535,314 520.978644,385.165722 454,459" id="Stroke-15" stroke="#090E2B" stroke-width="9.107" stroke-linecap="round" stroke-linejoin="round"/><path d="M560,611 C560,611 541.481013,682.167801 453,756" id="Stroke-17" stroke="#090E2B" stroke-width="9.107" stroke-linecap="round" stroke-linejoin="round"/><path d="M365,465 C365,465 376.498556,549.574282 454,611" id="Stroke-19" stroke="#090E2B" stroke-width="9.107" stroke-linecap="round" stroke-linejoin="round"/><line x1="136" y1="938" x2="136" y2="511" id="Stroke-3" stroke="#090E2B" stroke-width="9.107" stroke-linecap="round" stroke-linejoin="round"/><line x1="453" y1="932" x2="453" y2="226" id="Stroke-13" stroke="#090E2B" stroke-width="9.107" stroke-linecap="round" stroke-linejoin="round"/></g></g></g><g id="Outdoor Plants" transform="translate(2106.000000, 1090.000000) scale(1 1)"><g id="Outdoor Plants/Plant 1" stroke="none" stroke-width="1" fill="none" fill-rule="evenodd"><g id="Group-6" transform="translate(3.000000, 208.000000)"><path d="M199.883326,757 C199.883326,757 154.639614,615.704437 63.7021884,486.352218 C-27.2352371,357 -13.9695544,268.907181 63.7021884,246.214912 C141.373931,223.522642 267.592553,290.509829 306.646043,382.031679 C331.898655,441.210897 374.804123,628.371706 268.960535,757 C238.721051,756.165996 199.883326,757 199.883326,757 Z" id="Stroke-8" fill="#017C7F"/><path d="M180.80074,266.460237 C125.13078,13.4204746 221.50036,-21.2992546 328.620701,9.33958092 C435.741041,39.9784164 507.960342,173.305169 491.620701,300.677192 C466.681525,495.084959 320.447913,757 320.447913,757 L236.4707,757 C236.4707,598.666667 217.914047,435.153412 180.80074,266.460237 Z" id="Stroke-10" fill="#009BA0"/><path d="M299.869545,92.3392506 C301.326008,91.6825172 303.029928,92.2842179 303.76044,93.6823222 L303.857175,93.8846724 L304.316098,94.9397143 L304.887232,96.295742 C305.10977,96.8312409 305.345953,97.4073406 305.595259,98.0239333 L305.978996,98.9791786 C307.658678,103.18678 309.527498,108.198532 311.537907,114.004614 C317.270818,130.561319 322.999418,150.177346 328.343248,172.774008 C340.981111,226.213867 349.496836,287.717379 351.998041,356.891597 C354.239813,418.890863 350.075029,478.447706 339.405709,544.65636 L339.021897,547.023799 C329.749389,603.877937 316.614263,662.450624 292.750418,757.276586 C292.346063,758.883341 290.715735,759.858079 289.10898,759.453724 C287.502225,759.049369 286.527487,757.419042 286.931842,755.812287 L289.047362,747.388625 C311.539988,657.63471 324.138912,601.00352 333.100137,546.058001 C343.991922,479.275307 348.255457,419.431969 346.001959,357.108403 C343.515192,288.333464 335.05336,227.219184 322.504303,174.154847 L321.81134,171.250364 C316.714465,150.074656 311.289348,131.624212 305.868175,115.96781 L305.247809,114.188627 C303.503926,109.222351 301.87886,104.891689 300.406603,101.203688 L299.855033,99.8349225 C299.678602,99.4014064 299.50967,98.9906447 299.348457,98.6026828 L298.799647,97.2995385 L298.367875,96.3072458 C297.686818,94.7968393 298.359139,93.0203074 299.869545,92.3392506 Z" id="Path-6" fill="#090E2B" fill-rule="nonzero"/><path d="M589.575739,282.556489 C750.420208,274.363901 760.643075,407.886816 739.778496,462.864438 C715.162837,527.72606 641.307604,570.960237 582.304218,596.642758 C443.495397,657.062349 408.155852,757 408.155852,757 L286.620701,757 C286.620701,757 309.812449,296.806189 589.575739,282.556489 Z" id="Stroke-12" fill="#FFB201"/><path d="M613.533995,384.77167 C615.068698,384.147289 616.818982,384.88525 617.443363,386.419953 C618.067745,387.954656 617.329784,389.70494 615.795081,390.329322 C475.369379,447.460406 387.980539,569.583887 353.571426,757.085934 C353.272365,758.715574 351.708844,759.794222 350.079203,759.495162 C348.449563,759.196101 347.370914,757.63258 347.669975,756.002939 C382.426899,566.605602 471.067283,442.733123 613.533995,384.77167 Z" id="Path-3" fill="#090E2B" fill-rule="nonzero"/></g></g></g><g id="Flying Objects" opacity=".5" transform="translate(905.000000, 223.000000) scale(-1, 1) translate(-905.000000, -223.000000) translate(555.000000, -177.000000) scale(1 1)"><g id="Flying Objects/Speech Bubble" stroke="none" stroke-width="1" fill="none" fill-rule="evenodd"><g id="comment" transform="translate(228.000000, 270.000000)"><path d="M-1.87583282e-12,121.62 C-1.87583282e-12,188.756 54.436,243.196 121.616,243.196 C138.552,243.196 154.64,239.716 169.268,233.472 L227.52,260.208 L201.916,212.856 C227.228,190.6 243.196,157.996 243.196,121.62 C243.196,54.44 188.752,2.84217094e-14 121.616,2.84217094e-14 C54.436,2.84217094e-14 -1.87583282e-12,54.44 -1.87583282e-12,121.62" id="Fill-4" fill="#FFB201"/><rect id="Rectangle-Copy-3" fill="#FFF" x="58.318" y="81.499" width="132" height="12" rx="6"/><rect id="Rectangle-Copy-4" fill="#FFF" x="58.318" y="115.499" width="117" height="12" rx="6"/><rect id="Rectangle-Copy-5" fill="#FFF" x="58.318" y="149.499" width="79" height="12" rx="6"/></g></g></g></g></svg>